<svg xmlns="http://www.w3.org/2000/svg" viewBox="0 0 255.89 153.13"><defs><style>.cls-1{fill:#fff;}.cls-2{fill:#7154a3;}</style></defs><title>Asset 4</title><g id="Layer_2" data-name="Layer 2"><g id="Layer_1-2" data-name="Layer 1"><path class="cls-1" d="M33.53,119.45a24.46,24.46,0,0,1-12-30.59,1.22,1.22,0,0,0-.66-1.57L5.06,80.43a1.23,1.23,0,0,0-1.64.68A44.09,44.09,0,0,0,25.6,137.43a1.23,1.23,0,0,0,1.66-.62l6.86-15.76A1.24,1.24,0,0,0,33.53,119.45Z"/><path d="M33.29,119.46a24.46,24.46,0,0,1-12-30.59,1.22,1.22,0,0,0-.66-1.57L4.82,80.44a1.23,1.23,0,0,0-1.64.68,44.09,44.09,0,0,0,22.18,56.32,1.23,1.23,0,0,0,1.66-.62l6.86-15.76A1.24,1.24,0,0,0,33.29,119.46Z"/><path class="cls-2" d="M252.23,1.47A8.29,8.29,0,0,0,249,.71c-7.43,0-8.41,13.84-23.67,16.72a18.93,18.93,0,0,1-3.51.34C207.42,17.77,202,0,196.44,0h-.24c-1.81.17-7,.57-4.92,13.42a52.42,52.42,0,0,0,11.4,24.4,17.82,17.82,0,0,0,7.64-3.95l.33-.31a1.23,1.23,0,0,1,1.74,0,1.24,1.24,0,0,1,.18,1.47A15,15,0,0,1,210,38.3c-.49.47-1,.91-1.51,1.33a19,19,0,0,1-1.63,1.19l-.8.53c-3.35,1.95-14.56,7.58-32.24,7.58a97.29,97.29,0,0,1-30.12-5l.09,0c-3-.89-.65-9.86.65-14.28a3.18,3.18,0,0,0-3.88-4A50.44,50.44,0,0,0,124,34.28h0a5.45,5.45,0,0,1-4.48.88l.06.08a57.19,57.19,0,0,0-13.27-1.64c-30,0-45.76,26.55-49.06,37.36-5.23,17.14-11,12.28-15,20.61a10.28,10.28,0,0,0-.24,9.25c.12.19.24.38.37.57a12.24,12.24,0,0,0,1.93,2.21,17,17,0,0,0,5.06,3.15A33.78,33.78,0,0,0,61.46,109a48.66,48.66,0,0,0,12.42-1.29q1.52-.36,3-.84l3-1.1a27.9,27.9,0,0,1,3.16-.9c.54-.11,1.09-.21,1.65-.27.29,0,.57,0,.86,0a3.49,3.49,0,0,1,1,.14.49.49,0,0,1-.18,1h-.16a4,4,0,0,0-.61,0,6.13,6.13,0,0,0-.73.11c-.5.09-1,.22-1.49.36-1,.3-6.18,3.24-8.91,3.81a79,79,0,0,1-15.71,2.65,130.59,130.59,0,0,0,25.12,6.12,172.57,172.57,0,0,0,39,8.16c-2-7-.83-10.71,1.25-13.06a.44.44,0,0,1,.76.42l0,.07a9.56,9.56,0,0,0-.66,3.51,15.55,15.55,0,0,0,.45,3.59,23.21,23.21,0,0,0,3,6.72,39.76,39.76,0,0,0,4.65,5.91c.87.92,1.8,1.78,2.7,2.67l2.82,2.64c3.43,3.19,6.74,6.53,10.26,9.47a18.63,18.63,0,0,0,12.68,4.34,48.91,48.91,0,0,0,5.66-.38s7.8-.64,6-13.69a36.16,36.16,0,0,0-7.1-16.54,47,47,0,0,0-12.18-11.93l-.1,0c-.22-.15-.76-.81-.45-1.27s1.25-.4,1.48-.34c5.26,1.33,11.79,6.81,15.95,11.89,25.44-9.86,40.68-29.31,48.6-46.4,2.77-6,4.9-11.07,6.51-15.47a42.7,42.7,0,0,1,11-14.71c.52-.41,1-.83,1.55-1.28l0,0h0C251.69,30.81,261.58,5.46,252.23,1.47Z"/><circle class="cls-1" cx="99.4" cy="91.61" r="9.15"/><circle cx="99.4" cy="90.79" r="6.75"/><path class="cls-1" d="M101.32,90.09a1.26,1.26,0,1,1,1.25-1.25A1.25,1.25,0,0,1,101.32,90.09Z"/><path class="cls-1" d="M114.86,47C104.72,47.19,90.6,55,84,62.77a1.27,1.27,0,0,1-1.6.29c-4.3-2.33-5.94-5.14-6.52-7.35a1.27,1.27,0,0,1,.29-1.18c6.75-7.4,16.75-14.17,30.37-14.17a46.6,46.6,0,0,1,9.57,1c1.41.35,5.25,1.61,5.58,3.34C122.16,47.12,120.13,47,114.86,47Z"/></g></g></svg>