<?xml version="1.0" ?><svg viewBox="3230 1250 120 120" xmlns="http://www.w3.org/2000/svg"><defs><style>
      .cls-1 {
        fill: #a4c639;
      }

      .cls-2 {
        fill: #fff;
      }
    </style></defs><g data-name="Group 93" id="Group_93" transform="translate(3107 1147)"><circle class="cls-1" cx="60" cy="60" data-name="Ellipse 69" id="Ellipse_69" r="60" transform="translate(123 103)"/><g data-name="Group 92" id="Group_92" transform="translate(-109 75)"><rect class="cls-2" data-name="Rectangle 44" height="31.549" id="Rectangle_44" rx="5.03" transform="translate(257 73.52)" width="10.059"/><rect class="cls-2" data-name="Rectangle 45" height="31.549" id="Rectangle_45" rx="5.03" transform="translate(316.441 73.52)" width="10.059"/><path class="cls-2" d="M0,0H45.724a0,0,0,0,1,0,0V32.408a6,6,0,0,1-6,6H6a6,6,0,0,1-6-6V0A0,0,0,0,1,0,0Z" data-name="Rectangle 46" id="Rectangle_46" transform="translate(268.888 74.434)"/><path class="cls-2" d="M0,0H10.059a0,0,0,0,1,0,0V11.888a5.03,5.03,0,0,1-5.03,5.03h0A5.03,5.03,0,0,1,0,11.888V0A0,0,0,0,1,0,0Z" data-name="Rectangle 47" id="Rectangle_47" transform="translate(278.033 111.928)"/><path class="cls-2" d="M0,0H10.059a0,0,0,0,1,0,0V11.888a5.03,5.03,0,0,1-5.03,5.03h0A5.03,5.03,0,0,1,0,11.888V0A0,0,0,0,1,0,0Z" data-name="Rectangle 48" id="Rectangle_48" transform="translate(295.408 111.928)"/><path class="cls-2" d="M22.883.25c12.5,0,22.633,9.478,22.633,21.17H.25C.25,9.728,10.383.25,22.883.25Z" data-name="Path 206" id="Path_206" transform="translate(268.867 51.551)"/><circle class="cls-1" cx="2.058" cy="2.058" data-name="Ellipse 70" id="Ellipse_70" r="2.058" transform="translate(279.13 60.717)"/><circle class="cls-1" cx="2.058" cy="2.058" data-name="Ellipse 71" id="Ellipse_71" r="2.058" transform="translate(300.163 60.717)"/><rect class="cls-2" data-name="Rectangle 49" height="9.145" id="Rectangle_49" rx="0.686" transform="matrix(0.875, -0.485, 0.485, 0.875, 276.753, 47.665)" width="1.372"/><rect class="cls-2" data-name="Rectangle 50" height="9.145" id="Rectangle_50" rx="0.686" transform="translate(305.605 47) rotate(31)" width="1.372"/></g></g></svg>