<svg xmlns="http://www.w3.org/2000/svg" viewBox="0 0 261.12 163.13"><defs><style>.cls-1{fill:#fff;}.cls-2{fill:#7154a3;}</style></defs><title>Asset 2</title><g id="Layer_2" data-name="Layer 2"><g id="Layer_1-2" data-name="Layer 1"><path class="cls-1" d="M33.53,124.46a24.46,24.46,0,0,1-12-30.59,1.22,1.22,0,0,0-.66-1.57L5.06,85.44a1.23,1.23,0,0,0-1.64.68A44.09,44.09,0,0,0,25.6,142.44a1.23,1.23,0,0,0,1.66-.62l6.86-15.76A1.24,1.24,0,0,0,33.53,124.46Z"/><path d="M260.91,10.84c-.67-4.29-3-7.47-6.48-9A13.24,13.24,0,0,0,249.19.71c-5.64,0-8.81,4.06-11.6,7.64-3,3.87-6.16,7.88-13,9.17a14.73,14.73,0,0,1-2.59.25c-6.46,0-10.79-5.36-14.6-10.08C204.21,3.74,201.19,0,196.67,0h0L196,0a10,10,0,0,0-7.33,3.76c-2.54,3.29-3.21,8.34-2,15.44A57.41,57.41,0,0,0,198,44.74a66.24,66.24,0,0,1-23.93,4.19,90.84,90.84,0,0,1-25.46-3.85.88.88,0,0,1-.52-.85,46.4,46.4,0,0,1,1.8-8.06,8.79,8.79,0,0,0-1.4-7.79,8.9,8.9,0,0,0-7.08-3.56,9.08,9.08,0,0,0-2.37.32,56.2,56.2,0,0,0-18.26,9.48,2.22,2.22,0,0,1-1.7.32l0,0a61.07,61.07,0,0,0-12.56-1.39c-14.24,0-27.4,5.56-38.06,16.07C59.84,58.2,54.58,68.37,52.72,74.49c-2.67,8.72-5.09,10.36-7.65,12.09A18,18,0,0,0,38,94.42a15.21,15.21,0,0,0,.16,14.31c3.59,6.57,12.48,11.93,26.44,15.93A143.78,143.78,0,0,0,83,128.59,177.86,177.86,0,0,0,124.25,137a51.12,51.12,0,0,0,7.25,8.19c1.94,1.8,3.68,3.46,5.21,4.92,9.13,8.69,13.71,13.06,24.27,13.06a57.53,57.53,0,0,0,6.21-.4,11.47,11.47,0,0,0,7.48-4.31c2.83-3.54,3.82-8.6,2.93-15a38.5,38.5,0,0,0-4.47-13.29c29.48-11.83,44.05-35.16,50.25-48.54,2.69-5.8,4.91-11.08,6.62-15.7a37.75,37.75,0,0,1,9.54-12.73c.54-.42,1.07-.86,1.59-1.31l.17-.14C253.29,41.2,262.63,21.76,260.91,10.84Z"/><path d="M33.29,124.47a24.46,24.46,0,0,1-12-30.59,1.22,1.22,0,0,0-.66-1.57L4.82,85.45a1.24,1.24,0,0,0-1.64.68,44.09,44.09,0,0,0,22.18,56.32,1.23,1.23,0,0,0,1.66-.62l6.86-15.76A1.24,1.24,0,0,0,33.29,124.47Z"/><path class="cls-2" d="M252.23,6.48A8.29,8.29,0,0,0,249,5.72c-7.43,0-8.41,13.84-23.67,16.72a18.93,18.93,0,0,1-3.51.34C207.42,22.78,202,5,196.44,5h-.24c-1.81.17-7,.57-4.92,13.42a52.49,52.49,0,0,0,11.4,24.41,18,18,0,0,0,7.64-4l.33-.31a1.23,1.23,0,0,1,1.74,0,1.24,1.24,0,0,1,.18,1.47A14.78,14.78,0,0,1,210,43.31c-.49.47-1,.91-1.51,1.33a19,19,0,0,1-1.63,1.19l-.8.53c-3.35,2-14.56,7.58-32.24,7.58a97.29,97.29,0,0,1-30.12-5l.09,0c-3-.9-.65-9.87.65-14.29a3.18,3.18,0,0,0-3.88-4A50.44,50.44,0,0,0,124,39.29h0a5.53,5.53,0,0,1-4.48.88l.06.07a57.19,57.19,0,0,0-13.27-1.64c-30,0-45.76,26.55-49.06,37.36-5.23,17.14-11,12.28-15,20.61a10.28,10.28,0,0,0-.24,9.25c.12.19.24.38.37.57a12.24,12.24,0,0,0,1.93,2.21,17,17,0,0,0,5.06,3.15A34,34,0,0,0,61.46,114a49.12,49.12,0,0,0,12.42-1.3q1.52-.36,3-.84l3-1.1a27.9,27.9,0,0,1,3.16-.9,14.92,14.92,0,0,1,1.65-.26,8.25,8.25,0,0,1,.86,0,3.49,3.49,0,0,1,1,.14.49.49,0,0,1-.18,1h-.16a3.2,3.2,0,0,0-.61,0,4.57,4.57,0,0,0-.73.1,13,13,0,0,0-1.49.37c-1,.29-6.18,3.23-8.91,3.8a79,79,0,0,1-15.71,2.65,129.74,129.74,0,0,0,25.12,6.12,172.57,172.57,0,0,0,39,8.16c-2-7-.83-10.71,1.25-13.05a.42.42,0,0,1,.6-.12.43.43,0,0,1,.16.53l0,.07a9.56,9.56,0,0,0-.66,3.51,15.55,15.55,0,0,0,.45,3.59,23.09,23.09,0,0,0,3,6.72,39.76,39.76,0,0,0,4.65,5.91c.87.92,1.8,1.78,2.7,2.67l2.82,2.64c3.43,3.19,6.74,6.53,10.26,9.47a18.63,18.63,0,0,0,12.68,4.34,51,51,0,0,0,5.66-.37s7.8-.65,6-13.7a36.16,36.16,0,0,0-7.1-16.54,47,47,0,0,0-12.18-11.93l-.1,0c-.22-.15-.76-.81-.45-1.27s1.25-.4,1.48-.34c5.26,1.33,11.79,6.81,15.95,11.89,25.44-9.86,40.68-29.31,48.6-46.4,2.77-6,4.9-11.07,6.51-15.47a42.7,42.7,0,0,1,11-14.71c.52-.41,1-.83,1.55-1.28l0,0h0C251.69,35.82,261.58,10.47,252.23,6.48Z"/><circle class="cls-1" cx="99.4" cy="96.62" r="9.15"/><circle cx="99.4" cy="95.8" r="6.75"/><path class="cls-1" d="M101.32,95.1a1.26,1.26,0,1,1,1.25-1.25A1.25,1.25,0,0,1,101.32,95.1Z"/><path class="cls-1" d="M114.86,52.05C104.72,52.21,90.6,60,84,67.78a1.27,1.27,0,0,1-1.6.29c-4.3-2.33-5.94-5.14-6.52-7.35a1.27,1.27,0,0,1,.29-1.18c6.75-7.4,16.75-14.17,30.37-14.17a47.3,47.3,0,0,1,9.57,1c1.41.35,5.25,1.61,5.58,3.34C122.16,52.13,120.13,52,114.86,52.05Z"/></g></g></svg>