<svg version="1.1" xmlns="http://www.w3.org/2000/svg" viewBox="0 0 1771.40625 917.87890625" width="3542.8125" height="1835.7578125">
  <!-- svg-source:excalidraw -->
  
  <defs>
    <style class="style-fonts">
      @font-face {
        font-family: "Virgil";
        src: url("https://unpkg.com/@excalidraw/excalidraw@0.15.2/dist/excalidraw-assets/Virgil.woff2");
      }
      @font-face {
        font-family: "Cascadia";
        src: url("https://unpkg.com/@excalidraw/excalidraw@0.15.2/dist/excalidraw-assets/Cascadia.woff2");
      }
    </style>
    
  </defs>
  <rect x="0" y="0" width="1771.40625" height="917.87890625" fill="#ffffff"></rect><g stroke-linecap="round" transform="translate(1173.89453125 20.1484375) rotate(0 293.755859375 438.7890625)"><path d="M32 0 M32 0 C236.45 -0.01, 440.56 1.53, 555.51 0 M32 0 C207.48 -0.27, 382.6 -0.25, 555.51 0 M555.51 0 C575.39 1.17, 585.77 11.77, 587.51 32 M555.51 0 C578.29 -1.45, 589.69 10.6, 587.51 32 M587.51 32 C590.15 324.45, 590.84 617.22, 587.51 845.58 M587.51 32 C588.5 233.44, 588.69 434.75, 587.51 845.58 M587.51 845.58 C586.43 866.39, 576.73 879.07, 555.51 877.58 M587.51 845.58 C586.47 864.92, 579.03 879.16, 555.51 877.58 M555.51 877.58 C360.15 878.59, 166.44 877.94, 32 877.58 M555.51 877.58 C426.42 879.06, 297.33 879.21, 32 877.58 M32 877.58 C12 878.48, -0.84 867.85, 0 845.58 M32 877.58 C8.49 878.86, 1.78 867.66, 0 845.58 M0 845.58 C0.82 608.39, 0.65 371.1, 0 32 M0 845.58 C-2.94 680.4, -3.18 514.58, 0 32 M0 32 C1.54 12.51, 11.88 -0.13, 32 0 M0 32 C0.56 9.58, 12.74 -2.11, 32 0" stroke="#1e1e1e" stroke-width="1" fill="none"></path></g><g transform="translate(1420.52734375 48.73828125) rotate(0 63.729942321777344 12.5)"><text x="0" y="0" font-family="Virgil, Segoe UI Emoji" font-size="20px" fill="#1e1e1e" text-anchor="start" style="white-space: pre;" direction="ltr" dominant-baseline="text-before-edge">Prod network</text></g><g stroke-linecap="round" transform="translate(10 10) rotate(0 552.0625 448.939453125)"><path d="M32 0 M32 0 C373.76 2.97, 714.27 3.39, 1072.13 0 M32 0 C344.05 3.45, 655.22 3.53, 1072.13 0 M1072.13 0 C1092.51 0.2, 1104.92 9.81, 1104.13 32 M1072.13 0 C1093.7 1.33, 1106.11 11.63, 1104.13 32 M1104.13 32 C1107.24 235.7, 1106.32 440.52, 1104.13 865.88 M1104.13 32 C1101.22 331.4, 1101.28 630.44, 1104.13 865.88 M1104.13 865.88 C1104.76 885.9, 1092.61 898.98, 1072.13 897.88 M1104.13 865.88 C1102.22 889.4, 1094.7 900.01, 1072.13 897.88 M1072.13 897.88 C730.13 902.49, 388.42 902.35, 32 897.88 M1072.13 897.88 C783.28 902, 494.7 901.8, 32 897.88 M32 897.88 C12.14 898.95, 1.04 886.2, 0 865.88 M32 897.88 C9.15 898.34, -1.39 885.16, 0 865.88 M0 865.88 C0.49 645.38, -0.21 425.55, 0 32 M0 865.88 C0.44 535.88, -0.22 206.36, 0 32 M0 32 C-1.82 9.78, 10.64 1.07, 32 0 M0 32 C-0.77 11.56, 9.77 -0.92, 32 0" stroke="#1e1e1e" stroke-width="1" fill="none"></path></g><g transform="translate(447.26953125 52.18359375) rotate(0 71.79994201660156 12.5)"><text x="0" y="0" font-family="Virgil, Segoe UI Emoji" font-size="20px" fill="#1e1e1e" text-anchor="start" style="white-space: pre;" direction="ltr" dominant-baseline="text-before-edge">Intern network</text></g><g stroke-linecap="round" transform="translate(1268.72265625 152.953125) rotate(0 238.69140625 352.47265625)"><path d="M32 0 M32 0 C172.32 -2.11, 311.78 -0.62, 445.38 0 M32 0 C140.82 0.01, 250.21 -0.19, 445.38 0 M445.38 0 C466.29 0.31, 478.41 12.24, 477.38 32 M445.38 0 C467.02 0.85, 477.39 11, 477.38 32 M477.38 32 C476.34 183.41, 475.87 333.39, 477.38 672.95 M477.38 32 C477.12 201.27, 477.13 371.05, 477.38 672.95 M477.38 672.95 C477.92 694.28, 465.91 703.82, 445.38 704.95 M477.38 672.95 C477.65 693.61, 468.66 704.29, 445.38 704.95 M445.38 704.95 C350.29 704.64, 256.3 705.76, 32 704.95 M445.38 704.95 C342.95 705.3, 241.57 705.65, 32 704.95 M32 704.95 C12.36 703.2, -0.47 696.03, 0 672.95 M32 704.95 C11.09 705.95, 0.74 692.75, 0 672.95 M0 672.95 C0.4 450.43, 0.26 227.38, 0 32 M0 672.95 C2.4 543.77, 1.87 414.67, 0 32 M0 32 C-0.27 10.99, 12.16 0.11, 32 0 M0 32 C-1.63 9.48, 9.42 1.34, 32 0" stroke="#1e1e1e" stroke-width="1" fill="none"></path></g><g transform="translate(1317.4140625 181.6796875) rotate(0 195.4798583984375 12.5)"><text x="0" y="0" font-family="Virgil, Segoe UI Emoji" font-size="20px" fill="#1e1e1e" text-anchor="start" style="white-space: pre;" direction="ltr" dominant-baseline="text-before-edge">Paragon/OneWorld machine (iOS/Android)</text></g><g stroke-linecap="round" transform="translate(1308.9453125 270.0390625) rotate(0 66.744140625 65.736328125)"><path d="M32 0 M32 0 C46.91 -0.6, 59.55 1, 101.49 0 M32 0 C58.79 0.46, 86.24 -0.89, 101.49 0 M101.49 0 C122.72 1.5, 135.46 9.97, 133.49 32 M101.49 0 C122.37 0.95, 134.95 10.56, 133.49 32 M133.49 32 C134.99 47.83, 131.6 66.64, 133.49 99.47 M133.49 32 C134.14 56.27, 133.59 78.47, 133.49 99.47 M133.49 99.47 C134.26 121.93, 121.8 130.44, 101.49 131.47 M133.49 99.47 C132.26 119.75, 124.74 133.07, 101.49 131.47 M101.49 131.47 C76.35 130.8, 54.43 132.68, 32 131.47 M101.49 131.47 C79.66 130.52, 57.15 129.98, 32 131.47 M32 131.47 C10.25 132.65, -1.89 120.81, 0 99.47 M32 131.47 C8.74 131.58, 1.08 122.39, 0 99.47 M0 99.47 C-1.58 84.04, 0.81 67.17, 0 32 M0 99.47 C1.14 73.4, 0.42 46.48, 0 32 M0 32 C1.44 10.55, 9.13 -1.97, 32 0 M0 32 C-1.6 10.88, 9.82 -2.04, 32 0" stroke="#1e1e1e" stroke-width="1" fill="none"></path></g><g transform="translate(1320.484375 316.7265625) rotate(0 55.359954833984375 12.5)"><text x="0" y="0" font-family="Virgil, Segoe UI Emoji" font-size="20px" fill="#1e1e1e" text-anchor="start" style="white-space: pre;" direction="ltr" dominant-baseline="text-before-edge">Jest agent</text></g><g stroke-linecap="round" transform="translate(1539.3828125 275.01171875) rotate(0 66.685546875 65.1171875)"><path d="M32 0 M32 0 C49.46 1.2, 62.77 -1.22, 101.37 0 M32 0 C60.21 0.05, 87.37 -0.86, 101.37 0 M101.37 0 C122.07 1.2, 133.5 9.93, 133.37 32 M101.37 0 C122.8 -2.18, 131.24 11.52, 133.37 32 M133.37 32 C134.41 49.21, 133.12 65.15, 133.37 98.23 M133.37 32 C133.24 56.5, 133.24 83.29, 133.37 98.23 M133.37 98.23 C135.02 120.9, 124.37 128.91, 101.37 130.23 M133.37 98.23 C132.17 121.85, 123.19 130.15, 101.37 130.23 M101.37 130.23 C85.88 132.04, 72.35 129.15, 32 130.23 M101.37 130.23 C86.76 129.91, 70.81 129.76, 32 130.23 M32 130.23 C12.11 128.71, -1.23 118.58, 0 98.23 M32 130.23 C11.85 130.62, 0.25 120.33, 0 98.23 M0 98.23 C-1.17 83.01, 0.33 66.39, 0 32 M0 98.23 C0.76 73.49, 0.58 49.4, 0 32 M0 32 C0.22 9.45, 9.53 -1.13, 32 0 M0 32 C1.58 12.4, 10.55 0.48, 32 0" stroke="#1e1e1e" stroke-width="1" fill="none"></path></g><g transform="translate(1570.6683883666992 327.62890625) rotate(0 35.39997100830078 12.5)"><text x="35.39997100830078" y="0" font-family="Virgil, Segoe UI Emoji" font-size="20px" fill="#1e1e1e" text-anchor="middle" style="white-space: pre;" direction="ltr" dominant-baseline="text-before-edge">idb/adb</text></g><g stroke-linecap="round" transform="translate(604.25 151.04296875) rotate(0 220.1640625 355.966796875)"><path d="M32 0 M32 0 C151.7 1.1, 271.97 0.52, 408.33 0 M32 0 C125.86 -2.68, 220.38 -2.53, 408.33 0 M408.33 0 C430.66 -0.96, 441.87 11.74, 440.33 32 M408.33 0 C429.85 -2.21, 440.31 9.52, 440.33 32 M440.33 32 C440.83 228.42, 440.86 425.12, 440.33 679.93 M440.33 32 C439.94 267.18, 439.29 502.39, 440.33 679.93 M440.33 679.93 C441.03 702.71, 428.08 710.68, 408.33 711.93 M440.33 679.93 C439.41 701.39, 428.19 713.96, 408.33 711.93 M408.33 711.93 C324.95 712.92, 241.05 714.28, 32 711.93 M408.33 711.93 C264.64 711.73, 120.91 711.55, 32 711.93 M32 711.93 C9.76 711.98, -0.92 699.95, 0 679.93 M32 711.93 C9.56 711.72, 1.34 701.27, 0 679.93 M0 679.93 C0.76 445.87, 0.02 210.63, 0 32 M0 679.93 C-0.41 484.91, -0.32 289.51, 0 32 M0 32 C0.47 9.33, 10.36 -0.1, 32 0 M0 32 C-1.07 11.92, 9.78 -2.07, 32 0" stroke="#1e1e1e" stroke-width="1" fill="none"></path></g><g transform="translate(761.375 181.41015625) rotate(0 50.559959411621094 12.5)"><text x="0" y="0" font-family="Virgil, Segoe UI Emoji" font-size="20px" fill="#1e1e1e" text-anchor="start" style="white-space: pre;" direction="ltr" dominant-baseline="text-before-edge">On-demand</text></g><g stroke-linecap="round" transform="translate(645.0078125 249.46484375) rotate(0 190.359375 289.5)"><path d="M32 0 M32 0 C98.58 -2.21, 162.6 -0.37, 348.72 0 M32 0 C137 -2, 240.37 -1.41, 348.72 0 M348.72 0 C371.06 -1.55, 382.04 8.97, 380.72 32 M348.72 0 C370.99 0.16, 379.59 11.06, 380.72 32 M380.72 32 C379.36 218.95, 379.48 406.04, 380.72 547 M380.72 32 C381.9 209.12, 381.48 386.73, 380.72 547 M380.72 547 C381.17 567.79, 368.24 578.49, 348.72 579 M380.72 547 C380.76 570.43, 371.85 579.55, 348.72 579 M348.72 579 C263.95 575.92, 181.59 576.86, 32 579 M348.72 579 C278.54 580.5, 208.95 580.1, 32 579 M32 579 C9.96 578.28, 0.12 570.1, 0 547 M32 579 C10.21 579.59, -1.86 567.3, 0 547 M0 547 C-1.37 411.57, -1.97 274.76, 0 32 M0 547 C-0.94 374.53, -1.5 203.16, 0 32 M0 32 C-1.13 8.85, 9.09 1.88, 32 0 M0 32 C-1.78 9.19, 10.35 -0.25, 32 0" stroke="#1e1e1e" stroke-width="1" fill="none"></path></g><g transform="translate(782.375 274.0546875) rotate(0 61.73994445800781 12.5)"><text x="0" y="0" font-family="Virgil, Segoe UI Emoji" font-size="20px" fill="#1e1e1e" text-anchor="start" style="white-space: pre;" direction="ltr" dominant-baseline="text-before-edge">Jest master</text></g><g stroke-linecap="round" transform="translate(690.34765625 469.48828125) rotate(0 156.908203125 106.453125)"><path d="M32 0 M32 0 C99.79 -0.48, 169.32 -1.39, 281.82 0 M32 0 C99.57 -0.95, 167.73 0.04, 281.82 0 M281.82 0 C302.19 -0.36, 314.39 10.09, 313.82 32 M281.82 0 C304.74 -1.17, 312.87 9.26, 313.82 32 M313.82 32 C313.6 84.54, 313.4 135.63, 313.82 180.91 M313.82 32 C312.66 83.57, 312.56 133.43, 313.82 180.91 M313.82 180.91 C312.81 203.59, 304.7 211.6, 281.82 212.91 M313.82 180.91 C312.65 202.59, 305.43 213.5, 281.82 212.91 M281.82 212.91 C228.96 209.85, 174.81 212.72, 32 212.91 M281.82 212.91 C207.48 212.85, 131.47 213.57, 32 212.91 M32 212.91 C10.41 212.17, -0.8 203.01, 0 180.91 M32 212.91 C10.51 211.3, 1.6 202.19, 0 180.91 M0 180.91 C0.07 150.39, -0.53 117.11, 0 32 M0 180.91 C-1.19 129.39, -0.3 76.46, 0 32 M0 32 C0.92 12.28, 12.64 -0.82, 32 0 M0 32 C-1.56 11.03, 12.35 -2.08, 32 0" stroke="#1e1e1e" stroke-width="1" fill="none"></path></g><g stroke-linecap="round" transform="translate(22.625 137.01953125) rotate(0 229.02734375 360.662109375)"><path d="M32 0 M32 0 C126.15 1.3, 221.69 0.88, 426.05 0 M32 0 C124.03 0.96, 216.19 1.98, 426.05 0 M426.05 0 C446.73 1.02, 457.15 9.34, 458.05 32 M426.05 0 C446.09 0.75, 457.4 11.13, 458.05 32 M458.05 32 C457.64 221.05, 457.94 408.87, 458.05 689.32 M458.05 32 C455.41 215.44, 455.6 398.6, 458.05 689.32 M458.05 689.32 C457.11 710.39, 446.88 719.77, 426.05 721.32 M458.05 689.32 C457.06 709.5, 446.13 719.41, 426.05 721.32 M426.05 721.32 C287.33 722.5, 145.68 721.65, 32 721.32 M426.05 721.32 C315.56 721.93, 205.31 721.91, 32 721.32 M32 721.32 C8.92 723.14, 0.63 710.76, 0 689.32 M32 721.32 C11.1 721.3, -0.45 712.8, 0 689.32 M0 689.32 C-0.45 524.75, -1.45 358.53, 0 32 M0 689.32 C2.6 503.84, 2.65 317.68, 0 32 M0 32 C1.3 11.11, 10.62 0.14, 32 0 M0 32 C-1.39 11.54, 10.89 0.11, 32 0" stroke="#1e1e1e" stroke-width="1" fill="none"></path></g><g transform="translate(145.265625 169.78125) rotate(0 56.029945373535156 12.5)"><text x="0" y="0" font-family="Virgil, Segoe UI Emoji" font-size="20px" fill="#1e1e1e" text-anchor="start" style="white-space: pre;" direction="ltr" dominant-baseline="text-before-edge">Your laptop</text></g><g stroke-linecap="round" transform="translate(42.5390625 251.12890625) rotate(0 187.21484375 267.74609375)"><path d="M32 0 M32 0 C114 1.98, 198.12 1.5, 342.43 0 M32 0 C105.7 -1.74, 178.72 -1.35, 342.43 0 M342.43 0 C362.71 0.55, 373.76 11.58, 374.43 32 M342.43 0 C363.63 1.52, 373.36 12.57, 374.43 32 M374.43 32 C375.42 156.39, 375.8 281.29, 374.43 503.49 M374.43 32 C375.05 174.12, 374.83 315.76, 374.43 503.49 M374.43 503.49 C373.5 525.96, 363.54 535.86, 342.43 535.49 M374.43 503.49 C372.99 524.4, 365.87 534.42, 342.43 535.49 M342.43 535.49 C279.1 534.91, 218.41 533.67, 32 535.49 M342.43 535.49 C235.88 534.68, 129.86 534.58, 32 535.49 M32 535.49 C9.09 536.48, -0.65 522.92, 0 503.49 M32 535.49 C9.91 537.48, 0.82 525.07, 0 503.49 M0 503.49 C2.33 406.87, 1.77 310.02, 0 32 M0 503.49 C0.75 401.89, 0.77 300.01, 0 32 M0 32 C0.58 11.12, 10.61 0.53, 32 0 M0 32 C-0.48 12.3, 12.21 1.86, 32 0" stroke="#1e1e1e" stroke-width="1" fill="none"></path></g><g transform="translate(101.265625 286.421875) rotate(0 38.39996337890625 12.5)"><text x="0" y="0" font-family="Virgil, Segoe UI Emoji" font-size="20px" fill="#1e1e1e" text-anchor="start" style="white-space: pre;" direction="ltr" dominant-baseline="text-before-edge">Browser</text></g><g stroke-linecap="round" transform="translate(62.33984375 364.30078125) rotate(0 157.044921875 196.6796875)"><path d="M32 0 M32 0 C87.17 -0.65, 141.2 -1.29, 282.09 0 M32 0 C114.47 -0.11, 197.09 0.6, 282.09 0 M282.09 0 C305.04 -1.44, 314.12 10.33, 314.09 32 M282.09 0 C305.14 2, 314.27 8.42, 314.09 32 M314.09 32 C312.83 146.89, 312.87 261.03, 314.09 361.36 M314.09 32 C315.07 155.66, 315.37 279.18, 314.09 361.36 M314.09 361.36 C314.31 383.66, 304.95 394.45, 282.09 393.36 M314.09 361.36 C315.18 383.79, 301.29 392.39, 282.09 393.36 M282.09 393.36 C216.15 390.81, 149.27 392.48, 32 393.36 M282.09 393.36 C187.15 392.11, 90.66 392.26, 32 393.36 M32 393.36 C8.89 395.11, 0.11 383.62, 0 361.36 M32 393.36 C10.02 394.11, 1.52 382.6, 0 361.36 M0 361.36 C-0.29 276.3, 0.5 189.01, 0 32 M0 361.36 C0.06 258.31, 0.28 155.27, 0 32 M0 32 C1.85 8.96, 10.02 1.33, 32 0 M0 32 C-0.93 10, 12.8 1.21, 32 0" stroke="#1e1e1e" stroke-width="1" fill="none"></path></g><g transform="translate(142.265625 412.421875) rotate(0 52.58995056152344 12.5)"><text x="0" y="0" font-family="Virgil, Segoe UI Emoji" font-size="20px" fill="#1e1e1e" text-anchor="start" style="white-space: pre;" direction="ltr" dominant-baseline="text-before-edge">Flipper tab</text></g><g stroke-linecap="round" transform="translate(463.23046875 434.3125) rotate(0 78.302734375 118.794921875)"><path d="M0 0 C0 0, 0 0, 0 0 M0 0 C0 0, 0 0, 0 0 M-0.86 6.92 C0.92 5.18, 2.72 3.83, 4.24 0.1 M-0.35 6.68 C0.91 4.79, 1.78 4.16, 5.37 0.63 M0.78 11.1 C5.03 6.85, 7.01 3.14, 11.6 -1.33 M0.68 11.29 C4.31 8.11, 8.17 3.09, 9.98 0.59 M0.31 20.02 C4.91 9.75, 10.67 6.41, 15.72 -0.38 M0.51 17.57 C5.73 12.32, 10.73 3.82, 14.77 0.4 M1.75 25.51 C5.95 20.36, 9.12 12.88, 22.54 -0.2 M0.68 24.31 C6.57 17.17, 11.41 11.07, 21.47 -0.19 M-0.18 29.97 C7.76 21.73, 11.79 17.31, 26.57 -0.9 M0.77 30.38 C10.56 18.84, 18.99 7.57, 26.83 0.69 M-0.32 35.18 C8.82 26.51, 17.97 14.17, 32.62 1.83 M-0.67 37.16 C9.73 26.6, 16.94 15.66, 31.35 0 M1.91 42.52 C12.3 30.81, 22.82 16.79, 35.59 -1.39 M0.1 42.09 C10.48 30.96, 20.92 17.28, 36.94 0.39 M1.35 47.43 C15.32 30.03, 28.54 15.31, 40.6 -1.49 M-0.82 49.29 C15.15 30.33, 32.44 11.62, 42.3 -0.4 M-1.49 56.32 C18.98 33.65, 38.03 12.76, 46.48 -0.7 M-0.33 53.7 C17.34 35.88, 32.87 16.03, 46.74 0.85 M-0.84 60.8 C16.29 42.54, 35.25 21.64, 53.84 -0.41 M-0.46 61.52 C17.66 41.37, 34.73 20.85, 53.54 0.28 M1.67 66.54 C23.73 42.67, 44.07 16.28, 56.69 1.05 M0.33 68.32 C12.19 50.77, 26.35 36.27, 57.76 -0.67 M-0.05 71.8 C12.6 57.34, 28.88 41.98, 62.44 0.56 M0.23 73.76 C17.32 54.17, 31.68 35.46, 63.62 0.12 M0.19 79.79 C16.07 60.95, 30.68 40.43, 67.49 0.46 M0.27 79.21 C24.19 52.46, 47.66 24.05, 68.34 -0.05 M-1.65 85.65 C21.25 60.32, 42.85 35.72, 73.29 0.65 M-0.06 84.87 C29.84 52.56, 56.54 20.64, 73.47 0.59 M1.68 92.64 C24.68 66.63, 44.84 38, 77.91 0.86 M0.08 91.26 C27.42 60.64, 53.97 28.64, 78.74 0.77 M-1.87 99.05 C23.59 69.83, 47.12 43.71, 84.07 0.77 M0.55 98.31 C23.02 71.62, 46.33 44.51, 85.38 -0.47 M1.19 102.65 C30.19 68.93, 57.15 35.08, 90.76 -1.73 M0.35 103.02 C35.29 63.24, 71.76 22.62, 90.02 0.69 M0.77 111.15 C27.74 78.67, 53.88 46.73, 97.23 1.57 M0.77 110.18 C27.78 77.33, 57.53 45.34, 95.99 0.19 M-1.45 115.1 C20.9 91.69, 39.82 66.59, 102.64 -0.54 M0.05 116.42 C32.91 76.81, 65.29 39.35, 101.15 0.54 M-0.41 122.1 C21.77 94.06, 48.6 68.71, 106.02 1.42 M-0.79 122.73 C27.1 91.83, 54.11 59.98, 107.29 0.2 M-0.28 129.72 C39.31 81.28, 81.45 34.92, 109.92 -0.11 M-1.19 128.54 C35.05 85.71, 71.48 44.37, 111.93 0.02 M0.35 131.97 C35.67 94.27, 72.78 53.24, 115.78 -0.85 M-0.01 134.37 C45.63 82.27, 90.15 30.17, 117.01 1.34 M1.39 139.72 C38.32 93.04, 78.88 47.59, 122.77 1.76 M0.64 139.57 C45.33 86.49, 91.41 34.17, 122.02 0.72 M-1.42 147.6 C32.02 107.37, 62.74 72.62, 128.64 1.05 M1.09 145.37 C50.26 88.15, 101.53 30.7, 126.16 -0.48 M0.99 154.08 C28.09 117.06, 59.13 84.83, 131.27 -0.02 M0.82 152.38 C30.12 118.64, 61.47 84.44, 132.02 -0.79 M0.8 157.46 C37.75 118.66, 74.13 76.42, 137.52 -0.49 M0.58 159.57 C52.23 96.81, 105.91 34.65, 138.11 0.3 M1.58 165.39 C35.61 127.11, 67.12 88.7, 142.77 0.15 M0.04 164.46 C38.43 121.64, 76.07 78.23, 144 -0.34 M1.56 169.91 C59.06 102.64, 117.59 37.43, 146.97 -0.43 M0.66 170.81 C52.58 112.29, 102.86 51.8, 148.46 0.79 M1.06 175.54 C53.3 112.62, 109.04 52.67, 153.14 0.59 M-0.19 175.81 C30.29 139.68, 62.73 104.44, 153.77 -0.47 M1.24 184.43 C37.14 138.89, 74.66 94.31, 157.11 2.59 M0.26 183.39 C40.91 134.12, 82.15 86.75, 158.26 0.65 M0.95 189.96 C40.11 143.9, 78.88 96.54, 156.97 6.41 M-0.49 189.97 C30.79 152.72, 63.2 115.88, 157.5 7.37 M-1.17 195.77 C37.14 153.72, 72.04 110.12, 158.57 14.68 M0.57 195.47 C59.38 125.36, 120.56 56.47, 157.61 12.99 M0.3 199.83 C59.04 131.57, 120.65 60.07, 157.74 19.41 M0 201.77 C57.44 134.52, 117.07 66.45, 157.73 20.2 M-0.38 205.97 C50 150.83, 97.96 92.16, 157.84 27.29 M0.13 207.67 C60.77 135.86, 120.1 67.33, 156.96 25.85 M0.17 211.76 C46.86 160.28, 96.28 107.27, 158.45 32.15 M0.5 212.86 C39.63 171.21, 77.21 127.62, 158.27 31.78 M-0.18 220.05 C48.21 163.98, 95.74 108.69, 159.12 39.02 M0.07 219.59 C60.96 148.13, 122.86 75.12, 158.34 38.36 M1.27 226.37 C49.85 168.65, 99.03 109.28, 157.96 42.33 M0.32 226.11 C43.88 172.86, 89.93 121.34, 158.02 42.8 M0.74 231.38 C53.17 170.65, 105.28 109.53, 158.67 50.47 M-0.8 230.98 C57.62 165.5, 114.89 99.45, 158.81 49.73 M1.64 237.38 C40.07 189.04, 82.32 142.12, 159.27 57.31 M0.76 237.23 C35.89 195, 72.36 153.17, 158.43 56.27 M5.14 238.49 C61.08 174.83, 116.78 109.57, 159.03 62.96 M4.46 237.74 C50.73 183.89, 96.81 129.91, 158.87 62.09 M12.17 237.86 C60.39 180.79, 107.47 126.35, 157.18 69.5 M11.42 236.8 C59.93 182.84, 107.79 128.41, 158.68 68.71 M14.23 239.15 C60.26 185.54, 107.56 135.09, 156.61 74.17 M15.66 238.48 C49.7 200.41, 81.49 162.73, 157.58 73.69 M19.81 238.16 C51.8 202.69, 81.27 168.8, 159.48 78.95 M21.13 237.48 C56.75 196.11, 93.96 154.38, 157.38 80.44 M25.73 239.38 C67 188.56, 108.65 140.44, 156.43 87.41 M27.23 237.62 C60.92 200.43, 93.36 162.63, 158.04 87.3 M31.54 237.94 C77.59 183.01, 127.58 124.34, 157.15 92.84 M32.18 236.57 C67.84 196.93, 104.11 154, 158.17 91.66 M35.19 235.96 C67.23 200.79, 98.08 167.7, 159.65 100.21 M37.8 237.89 C66.18 203, 96.28 168.67, 158.75 99.45 M41.01 236.31 C89.21 182.87, 134.53 131.21, 157.04 102.74 M41.83 236.34 C73.98 202.84, 103.2 166.56, 157.38 104.71 M47.55 235.99 C74.67 209.16, 100.87 175.68, 159.98 109.56 M47.39 238.4 C68.81 212.14, 91.64 186.72, 158.9 110.79 M50.88 239.19 C93 190.77, 132.51 143.55, 157.99 116.74 M53.71 238.34 C73.79 215.07, 94.84 189.65, 157.12 117.52 M59.41 235.81 C90.13 198.28, 124.73 162.31, 156.24 123.68 M59.24 236.98 C86.68 203.19, 115.8 170.47, 158.92 122.87 M62.79 237.83 C82.98 214.92, 102.85 193.39, 158.42 127.6 M63.82 237.25 C97.63 199.48, 130.88 159.54, 157.4 129.64 M69.25 238.3 C103.66 197.69, 140.85 154.72, 158.15 136.43 M68.34 237.4 C102.86 201.24, 136.01 162.99, 158.56 135.58 M75.21 239.48 C94.27 213.93, 115.3 187.32, 158.55 143.04 M73.58 238.38 C100.97 205.59, 126.72 175.63, 157.13 141.79 M79.31 239.06 C101.95 212.77, 123.63 189.39, 159.59 146.14 M80.58 238.29 C101.75 212.83, 122.27 188.6, 157.27 146.93 M84.02 238.35 C102.28 215.48, 120.91 194.55, 157.02 152.75 M85.43 237.71 C106.31 210.95, 129.49 185.02, 157.71 153.8 M89.63 236.42 C104.55 220.38, 121.11 203.85, 159.16 158.62 M89.67 238.19 C113.98 210.6, 137.6 182.92, 157.85 159.09 M95.9 238.36 C112.09 220.35, 128.2 200, 160.3 167.15 M95.13 237.59 C115.92 215.88, 134.53 193.05, 157.43 166.42 M100.03 237.4 C113.24 221.06, 127.83 206.97, 158.29 173.64 M100.22 236.52 C119.84 215.76, 139.42 194.83, 157.45 171.87 M106.3 239.16 C121.5 220.28, 135.54 203.98, 155.93 180.13 M106.83 237.75 C122.01 219.62, 138.79 199.82, 157.77 179.02 M112.09 235.77 C126.48 220.81, 140.21 203.68, 157.83 183.93 M110.66 236.59 C122.08 226.88, 131.37 215.06, 157.28 184.71 M117.46 238.11 C125.34 225.6, 138.37 213.15, 157.23 192.02 M116.04 238.33 C128.26 223.39, 139 211.48, 157.03 189.62 M123.2 237.99 C131.85 226.44, 139.79 217.24, 158.78 194.71 M122.3 236.61 C128.56 228.34, 136.76 220.63, 158.23 197.21 M128.4 236.3 C134.63 228.58, 143.09 220.79, 157.34 204.14 M126.61 236.86 C139.24 224.16, 150.28 211, 157.4 202.36 M132.52 237.26 C138.29 228.16, 146.02 222.63, 158.87 210.66 M132.32 236.68 C137.12 230.88, 143.34 226.93, 158.51 209.08 M136.92 236.54 C141.37 230.59, 150.03 224.6, 157.82 213.78 M137.78 237.26 C145.7 230.48, 151.49 221.97, 158.61 213.56 M142.98 235.49 C149.16 234.27, 150.78 228.81, 158.66 222.41 M142.73 237.77 C148.21 233.3, 150.84 226.93, 158.74 221.7 M149.26 237.44 C150.63 236.24, 152.95 233.59, 157.44 226.14 M148.92 237.09 C151.91 233.6, 155.18 230.06, 157.6 226.45 M154.47 237.31 C154.77 236.8, 155.44 235.23, 158.07 233.03 M153.9 237.15 C154.97 236.55, 155.83 235.2, 157.9 232.57 M0.1 237.67 C0.1 237.67, 0.1 237.67, 0.1 237.67 M0.1 237.67 C0.1 237.67, 0.1 237.67, 0.1 237.67 M6.25 236.79 C4.46 235.6, 2.2 233.93, -0.36 231.51 M5.9 237.34 C3.4 235.16, 1.33 233.02, -0.4 231.94 M12.09 237.25 C9.19 235.19, 6.7 233.48, 1.05 226.26 M12.69 237.53 C8.81 233.86, 5.52 231.05, -0.18 227.64 M20.52 236.4 C12.77 232.91, 6.75 226.04, -0.7 221.79 M17.67 238 C15.33 234.27, 10.24 231.24, -0.43 220.62 M23.94 237.87 C16.57 229.01, 8.58 223.93, 0.34 216.36 M24.16 237.24 C19.17 232.04, 12.06 228.08, -0.54 215.92 M32.01 237.86 C21.53 227.03, 11.97 220, -0.64 209.44 M31.53 237.79 C19.75 228.16, 10.27 219.38, 0.31 210.56 M38.09 238.39 C21.74 224.5, 9.33 214.16, -1.7 207.39 M35.58 237.24 C27.14 229.42, 16.25 220.91, 0.46 206.35 M42.05 236.63 C29.68 226.25, 12.82 212.75, -0.38 200.82 M41.81 237.88 C29.71 226.24, 19.1 217.5, 0.49 200.85 M47.78 238.52 C35.36 225.43, 18.96 212.15, 1.42 194.76 M48.22 237.47 C37.62 228.22, 26.22 217.74, 0.61 195.72 M54.29 236.92 C43.91 225.96, 32.04 216.84, -1.54 188.82 M54.69 237.63 C32.93 219.03, 12.33 200.28, 1.01 190.14 M60.76 235.77 C41.29 218, 16.84 199.19, 1.73 184.79 M61.31 237.24 C47.97 226.41, 33.88 213.84, -0.34 184.58 M66.12 237.68 C52.09 223.88, 35.47 209.7, -0.7 178.03 M66.21 238.24 C52.28 224.43, 35.96 209.84, 0.43 179.45 M73.84 239.35 C45.31 214.03, 19.62 190.54, -0.94 172.5 M73.69 238.26 C52.16 219.37, 31.4 202.56, 0.18 174.33 M79.5 239.22 C56.85 217.89, 36.66 201.09, 1.6 168.09 M80.03 238.48 C61.97 222.55, 44.65 206.33, 0.88 168.52 M83.85 237.54 C51.46 209.09, 18.08 179.4, -1.01 163.65 M85.83 236.96 C60.66 217.62, 36.09 196.53, 0.64 162.29 M91.89 238.61 C58.1 209.01, 25.08 182.11, -0.4 156.37 M91.4 237.04 C69.34 217.75, 46.36 197.82, -0.13 157.48 M98.4 236.33 C77.05 221.01, 55.78 200.11, -1.09 152.73 M97.54 238.16 C73.53 215.05, 49.8 196.59, 0.33 152.67 M102.79 235.62 C73.7 212.3, 42.93 183.6, 0.32 147.95 M102.69 237.48 C66.78 204.48, 30.32 171.53, -0.74 147.85 M110.64 238.07 C79.11 212.11, 45.81 183.82, -2.03 140.91 M109.75 238.73 C86.31 217.67, 63.19 196.83, 0.42 141.57 M116.74 236.05 C80.12 206.16, 45.66 177.63, 1.55 137.63 M115.39 236.56 C76.47 204.64, 38.67 169.94, 0.26 137.56 M122.23 236.88 C86.14 203.75, 48.21 172.21, -0.89 130.13 M122.48 237.95 C74.04 198.46, 27.79 157.07, -1.06 131.96 M126.81 239.1 C81.09 198.53, 33.1 154.1, 1.88 127.93 M128.58 238.63 C87.13 202.73, 46.24 166.36, 0.47 125.9 M133.88 236.57 C82.38 193.37, 28.4 145.13, -0.94 120.99 M134.38 238.49 C82.52 190.89, 27.9 146.08, -0.22 120.72 M141.58 236.71 C98.88 203.59, 59.94 168.07, -1.33 115.1 M140.96 237.93 C89.54 193.13, 41.38 151.19, 0.82 116.58 M144.34 238.01 C101.17 197.88, 57.46 157.44, -1.68 110.86 M146.7 236.71 C113.35 210.99, 82.38 183.2, -0.33 109.63 M151.77 239.32 C117.95 209.52, 87.37 180.83, -1.74 106.88 M152.35 237.58 C111.12 201.99, 71.02 165.93, 0.55 104.72 M156.47 237.05 C117.48 204.33, 78.99 167.82, -0.78 99.76 M158.2 235.85 C117.91 203.13, 78.45 168.48, -0.73 100.24 M157.97 230.45 C111.61 191.7, 62.87 148.6, 0.86 93.68 M156.94 231.95 C97.83 179.7, 39.9 129.04, 0.44 93.77 M157.63 226.87 C120.48 192.39, 82.47 163.41, 0.41 89.27 M157.57 226.51 C116.98 192.23, 78.52 158.78, 0.63 89.98 M157.49 219.92 C115.16 180.67, 68.17 140.94, 0.98 83.95 M157.73 221.67 C97.72 170.87, 38.83 119.25, -0.44 84.37 M158.52 215.5 C100.92 167.36, 42.78 117.63, 0.41 77.57 M157.23 214.68 C123.66 187.89, 89.98 158.44, -0.15 77.99 M156.71 208.89 C110.44 170.18, 62.66 128.76, -0.91 73.34 M157.93 210.54 C113.12 171.12, 70.29 134.01, 0 74.11 M157.25 206.24 C111.06 163.43, 60.86 121.75, -0.36 69.04 M157.81 203.85 C118.51 168.55, 78.15 132.65, -0.36 67.88 M156.5 198.1 C121.21 168.92, 82.47 135.99, -0.16 64.36 M157.97 200.36 C115.27 163.8, 75.88 128.02, 0.65 61.8 M156.16 195.07 C119.6 162.24, 83.88 127.64, -0.66 59.21 M156.69 193.44 C103.92 146, 48.57 99.48, 0.02 57.17 M159.35 190.72 C125.92 158.44, 90.94 131.47, -0.27 50.42 M158.17 189.26 C94.64 135.57, 32.61 81.13, -0.18 51.89 M156.51 183.04 C112.21 142.43, 66.63 101.14, 0.58 47.78 M157.76 183.21 C94.2 130.33, 30.55 76.13, 0.03 47.75 M156.89 179.91 C112.68 141.59, 66.76 100.85, -0.5 42.38 M157.82 177.97 C102.42 131.71, 47.05 84.19, -0.31 41.22 M156.71 174.48 C104.73 129.51, 53.12 84.56, -1.11 36.86 M156.41 172.38 C102.21 124.42, 47.98 75.65, 0.34 36.07 M156.51 168.33 C102.88 120.09, 46.89 73.28, -1.18 31.39 M157.88 167.09 C114.44 129.43, 71.89 92.45, 0.08 30.53 M157.64 161.07 C102.25 112.38, 50.11 66.15, 0.26 25.64 M156.28 162.28 C112.28 122.43, 67.78 84.72, 0.6 26.45 M158.33 155.75 C121.83 127.53, 84.96 94.67, -1.99 18.94 M158.29 158.01 C109.64 114.28, 63.37 74.15, -0.61 19.99 M157.31 151.98 C115.72 112.19, 73.01 75.82, 1.61 15.74 M157.81 151.93 C106.01 108.24, 55.5 63.35, 0.36 14.28 M156.95 147.86 C95.72 93.03, 34.31 41.39, -0.1 8.09 M157.09 146.72 C115.83 108.14, 72.5 72.45, -1.02 10.15 M156.22 140.16 C94.94 86.17, 35.94 34.84, -0.31 5.86 M157.31 140.72 C105.42 96.18, 53.23 51.32, -0.08 4.6 M157.42 136.84 C120.99 104.98, 82.07 74.76, 1.67 -1.29 M156.64 135.33 C95.17 82.81, 32.93 28.72, 1.27 -0.12 M156.28 129.58 C111.29 92.48, 69.82 54.63, 6.68 -0.52 M157.49 131.68 C125.14 103.88, 94.79 78.23, 6.24 -0.65 M155.49 124.23 C100.14 75.24, 40.39 25.42, 12.78 0.96 M157.37 125.87 C100.13 75.36, 44.64 25.98, 12.64 -1.37 M155.93 120.32 C111.25 82.61, 66.06 39.52, 19.24 0.7 M158.31 120.93 C104.1 72.11, 49.08 24.53, 18.76 -0.6 M158.38 116.45 C122.51 83.44, 91.49 54.7, 24.99 -2.3 M156.92 113.76 C110.09 74.29, 65.54 35.05, 24.97 -1.74 M157.23 110.6 C111.4 67.15, 63.26 26.81, 31.75 -2.1 M158.58 109.34 C109.06 68.43, 63.39 28.68, 31.29 -1.34 M159.09 102.93 C131.88 84.87, 110.95 61.97, 37.51 -0.22 M156.42 103.95 C127.3 78.36, 98.3 52.83, 38.1 -0.35 M159.67 99.2 C129.09 76.98, 101.32 52.24, 43.63 0.46 M157.54 99.83 C117.97 64.48, 77.29 29.54, 43.54 0.3 M158.46 93.71 C135.85 72.57, 115.13 53.72, 47.91 -0.08 M157.96 94.36 C126.86 68.26, 97.21 42.76, 49.84 -0.96 M155.71 88.76 C128.75 61.47, 100.36 36.87, 56.11 0.51 M156.83 88.65 C117.81 51.25, 76.79 16.17, 55.15 -0.53 M159.08 81.55 C138.31 64.85, 114.04 45.8, 62.81 -1.5 M157.47 82.79 C128.32 58.62, 100.49 33.65, 61.64 -0.97 M156.59 79.64 C121.87 47.5, 87.96 18.76, 66.94 -0.44 M157.47 78.43 C129.97 53.49, 103.41 30.02, 67.36 -1.18 M155.33 71.91 C123.07 45.73, 92 17.82, 72.85 -1.01 M157.78 71.97 C127.33 47.84, 98.31 21.84, 72.55 -1.04 M158.33 67.94 C130.91 42.66, 101.42 16.88, 81.39 -0.14 M156.82 67.2 C133.52 47.64, 109.91 26.63, 79.03 -1.03 M155.35 60.99 C140.01 45.55, 124.51 32.77, 87.45 -1.43 M157.54 62.48 C129.09 37.03, 99.44 13.05, 84.98 -1.43 M155.72 55.45 C131.67 35.27, 107.88 13.96, 90.79 -1.66 M157.58 57.37 C133.13 34.53, 108.53 15.02, 92.11 -0.65 M159.1 49.71 C143.72 39.89, 125.47 24.7, 97.58 -1.22 M156.29 51.81 C137.28 32.68, 115.72 14.26, 98.45 -0.39 M156.35 47.69 C141.64 33, 124.58 15.21, 103.48 -1.97 M156.86 46.75 C139.86 30.18, 123.55 15.04, 103.69 -1.33 M156.3 41.69 C137.7 26.1, 122.62 9.8, 110.71 0.94 M157.4 39.33 C144.7 30.86, 134.21 20.18, 109.58 0.29 M158.58 35.9 C148.84 25.14, 140.22 20.13, 115.58 -1.36 M157.08 35.53 C143.8 23.96, 131.6 13.33, 115.69 -1.51 M156.44 29.28 C146.07 20.91, 137.17 13.78, 121.36 0.02 M157.13 29.31 C147.49 22.46, 137.14 13.84, 121.6 0.17 M157.56 23.04 C149.43 16.86, 142.88 13.43, 129.77 -0.73 M157.04 25.3 C147.34 15.99, 138.56 7.53, 128.67 -1.05 M159.57 20.21 C152.03 16.22, 145.27 11.4, 134.09 0.08 M158.33 20.57 C148.82 13.06, 140.9 4.86, 134.38 -1.46 M159.19 13.8 C152.59 11.62, 146.67 3.73, 142.22 -2.22 M156.91 14.04 C152.54 9.56, 148.28 5.83, 141.75 -0.91 M158.88 8.97 C155.53 5.37, 152.38 3.03, 146.28 0.47 M158.29 8.89 C154.14 5.88, 148.96 0.94, 146.19 -0.15 M157.63 3.74 C156.16 2.07, 155.07 1.94, 152.94 -0.18 M157.33 3.31 C156.42 2.87, 155.44 1.56, 152.66 -0.43" stroke="#ffc9c9" stroke-width="0.5" fill="none"></path><path d="M-1.38 -0.25 C39.11 1.33, 76.88 0.88, 157.49 -0.44 M155.63 -1.34 C157.14 80.76, 156.73 160.42, 157.02 237.1 M158.26 238.99 C98.38 238.6, 44.79 238.23, 0.32 238.86 M1.29 236.57 C0.13 186.92, 1.19 135.05, -1.5 -0.63" stroke="#1e1e1e" stroke-width="1.5" fill="none" stroke-dasharray="8 9"></path></g><g transform="translate(490.09324645996094 540.607421875) rotate(0 51.43995666503906 12.5)"><text x="51.43995666503906" y="0" font-family="Virgil, Segoe UI Emoji" font-size="20px" fill="#1e1e1e" text-anchor="middle" style="white-space: pre;" direction="ltr" dominant-baseline="text-before-edge">SSH tunnel</text></g><g stroke-linecap="round"><g transform="translate(375.22265625 534.91015625) rotate(0 158.06153180276178 -1.1289915658662153)"><path d="M1.07 1.04 C110.69 -3.11, 221.89 -2.98, 287.57 -0.94 M0.44 -0.29 C57.52 -0.67, 115.86 -1.29, 287.48 -1.97 M289.11 -3.3 C292.33 -0.33, 299.47 -3.04, 315.68 -1.66 M288.73 -2.19 C294.35 -2.28, 302.47 -1.53, 314.02 -2.21" stroke="#1e1e1e" stroke-width="2" fill="none"></path></g></g><mask></mask><g transform="translate(265.84765625 494.78125) rotate(0 104.07991027832031 12.5)"><text x="0" y="0" font-family="Virgil, Segoe UI Emoji" font-size="20px" fill="#1e1e1e" text-anchor="start" style="white-space: pre;" direction="ltr" dominant-baseline="text-before-edge">WebSocket connection</text></g><g stroke-linecap="round" transform="translate(1009.45703125 500.47265625) rotate(0 128.162109375 56.787109375)"><path d="M0 0 C0 0, 0 0, 0 0 M0 0 C0 0, 0 0, 0 0 M-0.78 7.11 C1.04 5.61, 2.79 2.49, 4.66 0.63 M-0.13 6.58 C1.38 3.93, 3.18 2.17, 5.2 0.2 M1.33 11.13 C2.59 6.36, 6.95 5.12, 10.76 -0.1 M0.11 12.62 C3.67 8.75, 5.52 5.37, 10.12 -0.53 M1.46 18.99 C7.41 9.82, 11.44 2.92, 14.51 0.61 M0.66 19.15 C4.46 13.54, 8.81 8.39, 15.16 -0.22 M0.02 23.46 C7.22 18.4, 11.59 12.92, 22.91 -0.99 M1.16 23.28 C7.21 17.55, 13.64 9.82, 20.48 0.11 M-1.34 31.45 C11.55 16.58, 19.78 5.17, 28.18 -1.3 M0.39 30.72 C6.58 20.82, 15.58 12.46, 25.64 0.13 M-0.53 37.12 C10.17 24.75, 19.65 16.25, 31.16 -0.77 M0.14 36.47 C11.72 22.37, 25.81 6.86, 31.8 -0.05 M2.08 42.12 C15.75 27.31, 26.79 8.94, 36.97 -1.65 M-0.65 42.6 C10.29 29.35, 22.34 18.02, 37.53 0.44 M-1.5 50.03 C13.53 34.24, 30.15 17.1, 43 0.17 M-0.75 48.95 C14.4 32.4, 27.99 15.38, 42.09 0.61 M0.55 55.27 C16.78 33.96, 35.99 12.2, 46.5 1.33 M0.01 55.22 C17.69 34.91, 34.62 14.66, 47.3 0.03 M-0.59 61.33 C13.98 46.04, 22.5 33.82, 52.66 -0.79 M0.6 61.46 C10.93 48.12, 22.64 34.76, 52.86 0.22 M1.03 65.65 C16.86 46.48, 39.02 24.32, 58.14 2.1 M-0.49 68.16 C16.22 47.76, 32.03 29.42, 58.23 1.1 M0.96 74.11 C23.06 47.62, 46.07 21.72, 63.16 1.42 M-0.18 72.91 C18.87 51.27, 37.91 29.43, 63.96 0.31 M1.22 77.45 C24.49 49.23, 49.64 20.46, 67.05 1.86 M-0.64 80.12 C21.67 54.59, 42.75 28.33, 69.51 -0.26 M-0.32 86.19 C25.85 54.49, 54.81 23.14, 76.3 1.6 M0.38 84.07 C26.35 55.55, 50.58 27.81, 74.62 -1.2 M-0.35 90.85 C26.9 64.36, 50.36 33.59, 80.16 -1.49 M0.42 90.45 C22.27 67.71, 42.66 43.55, 79.15 0.94 M-0.76 96.86 C18.98 74.12, 38.38 54.2, 86.67 -1.71 M-0.04 97.38 C26.54 67.19, 51.14 37.2, 84.42 -1.01 M0.26 105 C30.54 70.61, 61.6 35.53, 90.21 0.7 M0.58 103.15 C31.66 65.14, 64.13 29.26, 89.04 -0.42 M-0.97 109.87 C29.2 74.7, 63.39 39.01, 95.61 -0.29 M0.07 108.88 C20.88 85.06, 42.54 60.47, 96.29 0.57 M2.46 116.01 C38.77 72, 76.26 30.18, 101.69 1.76 M1.77 113.86 C35.53 73.94, 71.33 32.52, 99.93 -0.57 M6.85 112.4 C26.36 91.04, 51.01 64.09, 105.28 -2.16 M5.68 114.24 C38.72 77.18, 72.49 39.75, 105.55 0.63 M10.93 113.9 C37.53 85.38, 59.82 58.83, 112.88 1.77 M10.77 113.77 C40.31 80.9, 68.23 46.77, 110.42 0.13 M15.72 116.16 C46.08 83.79, 74.07 52.11, 115.95 -0.91 M17.08 114.82 C48.22 76.78, 80.45 40.64, 116.18 -0.58 M22.16 116.29 C54.74 75.06, 88.02 36.1, 121.85 1.51 M22.71 114.38 C52.78 81.22, 82.17 47.55, 121.97 0.24 M29.16 115.09 C46.96 90.12, 71.61 64.64, 126.63 -0.65 M28.1 114.39 C60.12 75.42, 93.47 38.19, 126.53 0.27 M31.2 113.21 C68.94 72.96, 107.74 30.94, 132.45 0.48 M32.93 115.24 C70.25 72.42, 105.97 30.66, 131.91 0.2 M40.37 113.33 C77.22 71.07, 112.65 25.45, 137.15 -1.5 M38.39 114.07 C73.58 75.51, 106.95 36.3, 138.31 1.22 M43.93 116.38 C67.13 90.09, 87.83 63.03, 144.3 -1.08 M44.11 114.29 C66.06 88.94, 86.97 64.24, 142.42 -0.66 M50.37 115.71 C75.12 81.76, 101.84 51.73, 148.78 -0.63 M48.44 113.89 C83.28 75.5, 117.45 37.4, 148.26 0.9 M54.98 113.28 C78.91 87.01, 103.26 58.89, 154.82 -0.23 M53.31 114.88 C77.72 88.9, 100.87 62.33, 153.54 0.88 M57.93 113.82 C97.29 72.12, 135.81 26.39, 157.58 -1.49 M60.59 113.73 C100.1 68.69, 139.06 24.11, 158.48 0.36 M65.79 113.07 C101.42 70.17, 142.18 27.4, 165.19 -1.32 M64.93 114.73 C95.91 80.3, 125.13 45.25, 164.17 -1.08 M68.97 116.69 C108.73 68.93, 149.19 24.41, 168.36 0.2 M69.42 115.17 C106.54 71.86, 145.35 27.8, 169.42 0.03 M74.56 112.66 C104.9 81.41, 137.57 45.88, 174.38 -1.97 M75.75 114.97 C114.27 69.66, 152.51 26.8, 175.08 -0.53 M81.15 113.81 C120.26 70.71, 155.87 24.69, 180.74 -1.59 M81.3 115.38 C104.47 87.38, 127.68 59.71, 180.9 0.74 M86.27 114.66 C105.68 89.7, 125.89 68.56, 185.15 0.94 M85.88 115.09 C121.19 73.49, 156.98 33.32, 185.88 -0.58 M89.93 113.67 C127.23 70.53, 167.71 24.08, 191.13 -1.14 M91.51 114.68 C121.74 79.25, 151.59 44.71, 191.09 0.68 M94.69 113.39 C135.97 67.52, 175.1 24.31, 198.03 1.2 M95.82 114 C129.96 73.89, 163.73 36.75, 196.05 -0.44 M101.22 114.7 C127.11 84.67, 157.08 50.76, 202.68 0.98 M101.85 114.57 C123.11 89.65, 146.84 63.11, 201.53 0.47 M108.37 112.92 C146.44 71.1, 185.39 24.14, 205.34 1.37 M107.42 114.99 C146.94 68.92, 187.46 23.54, 207.93 -0.45 M112.72 116.08 C132.61 88.73, 156.06 62.66, 211.35 -0.09 M112.96 115.38 C133.03 92.11, 154.1 68.57, 212.11 0.1 M116.65 113.02 C151.49 75.32, 188.12 36.02, 217.17 -1.31 M116.87 114.74 C141.23 89.08, 164.11 61.45, 217.72 -1.03 M123.9 115.67 C151.84 79.97, 182.81 47.25, 223.89 0.52 M123.35 115.38 C157.67 73.95, 193.24 32.73, 222.07 -0.04 M127.63 115.17 C151.21 88, 173.97 62.44, 227.39 -0.86 M127.75 114.32 C157.1 83.06, 184.96 51.17, 228.47 0.25 M134 116.09 C158.65 85.84, 181.87 57.42, 231.81 -0.6 M134.4 115.71 C169.48 72.57, 207.88 29.97, 233.05 -0.19 M138.21 112.59 C172.22 79.74, 203.46 41.08, 239.02 0.17 M139.98 114.2 C160.91 90.01, 181.92 64.81, 238.45 0.51 M144.07 114.64 C174.1 82.62, 203.48 45.92, 245.41 -1.17 M143.34 115.39 C168.83 87.27, 192.93 58.88, 244 -0.17 M148.06 116.19 C172.74 87.17, 195.19 62.31, 248.8 1.68 M148.84 115.22 C177.23 81.83, 203.71 50.39, 248.75 -0.53 M154.91 113.37 C192.97 72.73, 232.26 26.92, 255.77 0.85 M154.24 114.36 C189.51 73.68, 226.01 31.29, 254.25 -0.44 M161.63 112.63 C190.67 79.02, 217.53 48.34, 259.98 2.06 M159.98 113.63 C190.35 81.58, 220.54 46.9, 259.03 2.53 M165.12 113.02 C191.57 84.48, 219.16 54.41, 258.19 8.74 M165.06 114.42 C199.43 76.66, 232.1 37.98, 257.94 6.51 M170.17 114.28 C190.92 89.49, 211.1 67.01, 257.7 15.23 M170.4 114.07 C195.53 85.53, 222.15 54.17, 257.91 14.74 M177.09 115.08 C201.56 86.04, 228.71 55.68, 257.28 19.7 M176.62 114.29 C201.77 86.87, 226.73 57.85, 258.09 19.74 M181.7 113.2 C201.41 96.47, 218.24 75.29, 257.93 26.17 M181.45 114.55 C204.28 88.57, 226.05 63.75, 258.94 25.46 M186.96 115.73 C204.71 94.56, 219.02 75.37, 259.72 32.87 M187.56 114.54 C212.11 86.21, 235.09 58.75, 258.35 32.95 M190.34 115.97 C210.92 95.57, 228.73 76.97, 259.23 39.18 M191.22 114.26 C208.43 94.83, 226.67 75.05, 259.32 37.49 M198.68 115.9 C216.01 91.65, 237.49 68.24, 259.06 45.88 M197.43 114.68 C209.71 100.01, 221.4 85.61, 258.83 44.01 M201.01 114.6 C212.79 102.43, 225.66 88.08, 257.28 50.02 M202.08 115.48 C214.63 101, 228.32 86.56, 257.48 50.26 M205.97 115.2 C225.43 97.34, 237.14 78.94, 260.27 57.37 M207.6 114.08 C222.35 96.88, 239.23 78.82, 257.66 56.43 M211.4 113.07 C226.73 98.49, 241.46 83.86, 257.54 60.91 M213.83 115.16 C227.59 98.81, 242.61 81.56, 258.65 61.85 M218.34 113.98 C230.65 103.08, 238.72 91.73, 257.14 69.67 M218.33 115 C228.09 102.5, 238.79 91.04, 259.33 69.1 M224.65 114.34 C233.2 99.95, 247.12 88.88, 257.25 75.03 M223.26 114.9 C235.44 101.09, 247.48 86.5, 257.98 74.48 M231.06 115.33 C236.34 105.62, 243.4 99.01, 257.55 79.57 M229.71 113.6 C239.86 102.7, 250.21 90.54, 257.03 82.08 M234.7 115.1 C244.67 104.37, 253.07 94.61, 258.1 87.56 M234.53 114.68 C239.51 108.44, 246.84 100.97, 258.12 86.51 M239.2 115.01 C247.25 109.71, 250.61 99.74, 260.14 93.35 M240.7 114.93 C244.74 107.91, 250.82 102.62, 258.27 92.53 M244.24 115.74 C248.66 108.96, 250.2 108.15, 259.56 100.36 M244.16 113.85 C250.35 108.16, 255.27 102.41, 257.57 98.2 M251.13 115.06 C252.34 110.75, 255.54 107.88, 257.14 105.26 M250.25 114.09 C253.04 111.45, 254.52 109.69, 258.1 104.68 M0.37 113.89 C0.37 113.89, 0.37 113.89, 0.37 113.89 M0.37 113.89 C0.37 113.89, 0.37 113.89, 0.37 113.89 M5.96 114.24 C3.45 112.06, 2.95 110.27, 0.27 107.91 M6.28 113.55 C3.42 111.72, 1.54 109.51, -0.17 108.44 M11.22 112.31 C9.89 110.04, 6.13 108.35, 0.57 104.05 M12.68 113.89 C10.25 111.65, 6.44 109.01, 1.09 103.29 M19.9 113.86 C14.15 107.21, 6.76 105.7, 1.52 98.21 M17.31 113.24 C11.08 108.58, 5.03 101.71, -0.81 98.19 M26.41 113.69 C18.48 106.7, 9.78 101.3, 0.4 91.71 M24.58 114.31 C15.78 105.82, 7.93 97.77, 1.16 92.68 M32.17 113.71 C22.59 107.17, 18.85 100.77, 0.99 85.91 M30.77 113.34 C23.83 108.89, 18.93 103.08, 0.07 86.51 M36.03 114.08 C25.91 102.49, 12.47 95.01, 0.49 82.15 M36.44 113.48 C22.86 101.75, 8.04 88.18, 1 81.63 M41.14 114.96 C26.28 102.33, 13.71 89.45, -1.63 74.88 M43.81 113.12 C31.11 105.14, 20.84 94.36, -0.73 76.32 M48.4 114.12 C30.85 95.41, 9.6 82.13, -0.74 73.07 M47.63 112.75 C39.28 104.92, 29.44 96.78, -0.4 70.86 M55.34 112.36 C31.77 95.84, 10.54 76.48, 1.67 65.19 M54.29 114.61 C42.51 102.33, 27.18 89.2, 0.14 65.65 M61.65 115.16 C48.23 100.65, 35.98 90.2, 0.88 60.64 M60.6 113.49 C43.4 98.64, 25.97 83.56, -0.38 60.94 M68.28 114.74 C42.71 95.93, 21.21 73.73, 1.69 54.65 M67.2 113.11 C41.95 90.99, 16 67.59, -0.6 54.91 M74.46 114.32 C45.69 90.21, 21.11 66.42, 1.28 49.78 M72.87 113.49 C53.22 95.48, 32.23 76.83, 0.59 49.38 M77.29 111.63 C51.69 91.89, 27.58 70.47, -2 44.79 M78.37 112.78 C57.83 96.2, 36.56 76.82, 0.13 43.91 M84.54 114.4 C55.12 89.62, 26.09 64.49, -1.81 40.12 M84.58 113.9 C60.67 92.1, 36.74 72.69, -0.1 39.54 M90.22 111.94 C65 89.34, 37.21 65.14, 0.98 34.83 M92.26 114.35 C56.45 83.32, 22.37 51.92, -1.21 32.85 M95.62 115.27 C76.34 92.42, 50.4 74.79, 1.11 28.01 M96.48 113.6 C69.76 89.06, 40.73 64.45, -0.2 29.69 M104.43 115.33 C69.48 82.88, 33.97 52.35, -2.24 23.74 M103.92 113.46 C82.09 95.85, 59.32 76.76, 0.15 23.31 M108.22 112.51 C85.77 91.78, 59.6 68.63, 1.33 16.52 M109.7 112.87 C66.75 76.1, 24.87 41.5, 0.38 18 M117.34 114.15 C71.09 75.73, 25.82 36.5, -1.73 12.2 M116.51 113.61 C80.53 83.18, 43.39 50, 0.39 13.27 M122.4 112.08 C88.5 88.65, 60.45 61.28, 1.9 9.43 M121.45 113.03 C79.4 77.24, 38.36 41.85, 0.61 7.5 M129.38 112.82 C93.95 80.61, 53.84 50.9, 1.21 0.6 M127.32 112.53 C93.43 86.7, 61.44 56.93, 0.02 2.09 M132.72 113.69 C83.84 70.05, 32.57 27.85, 1.19 -1.43 M135.06 112.83 C103.62 85.82, 74.04 60.01, 0.82 -1.55 M138.79 114.46 C93.25 73.2, 45.61 31.96, 8.38 -1.72 M139.48 113.85 C104.52 81.95, 65.94 51.04, 7.22 -1.23 M146.8 112.73 C114.22 87.69, 84.5 64.25, 12.88 -0.98 M145.46 113.36 C118.78 89.06, 90.97 64.97, 13.75 -1.45 M152.31 115.58 C121.84 88.16, 92.68 65.04, 21.51 -0.88 M153.74 114.75 C124.34 86.55, 96.45 63.2, 19.7 -1.5 M160.29 111.67 C118.65 79.01, 77.04 45.89, 24.81 -0.45 M159.22 114.46 C120.39 78.34, 82.45 45.02, 26.38 -1.66 M164.23 113.43 C118.44 71.7, 71.23 29.92, 33.88 -0.59 M164.43 114.32 C113.48 66.5, 59.98 21.31, 31.29 -2.46 M171.62 114.67 C130.9 75.8, 87.81 40.14, 39.92 -0.52 M170.24 112.37 C138.65 86.18, 105.53 58.49, 37.87 -0.92 M174.85 111.96 C127.64 70.72, 77.25 28.04, 43.31 -1.59 M177.04 114.52 C133.84 75.93, 91.36 36.81, 43.93 -1.16 M184.73 114.29 C149.92 84.52, 115.73 56.17, 48.68 -1.14 M183.55 113.35 C149.15 83.83, 114.02 54.67, 50.96 -2.04 M189.53 113.18 C151.42 78.29, 109.51 45.9, 54.43 -2.89 M188.14 112.52 C160.04 89.51, 133.33 65.77, 56.94 -2.3 M196.11 114.84 C156.76 82, 121.49 50.27, 63.6 -3.53 M195.25 114.1 C160.11 84.04, 124.68 52.88, 61.52 -0.96 M201.39 111.8 C159.64 77.49, 119.83 41.5, 69.38 -3.12 M201.15 112.42 C170.17 85.59, 138.26 58.9, 68.76 -0.49 M209.27 114.31 C172.53 84.97, 133.64 51.11, 74.2 -2.89 M208.1 112.69 C174.51 86.5, 143.6 59.76, 74.55 -2.42 M214.1 113.93 C182.14 83.51, 146.43 55.19, 82.81 -1.16 M214.13 114.84 C175.26 80.33, 138.5 45.48, 80.91 -1.96 M217.78 111.73 C187.04 84.81, 151.96 53.7, 85.81 -1.68 M219.43 112.89 C181.8 80.72, 143.5 47.37, 85.87 -2.23 M224.84 112.41 C195.93 85.48, 162.48 60.68, 92.46 -2.22 M225.71 113.32 C194.43 85.03, 163.54 59.63, 93.53 -1.55 M231.96 113.9 C181.71 71.02, 135.71 30.53, 98.27 -2.98 M230.96 113.88 C183.74 70.48, 133.65 28.35, 99.94 -1.67 M238.83 112.79 C202 78.87, 164.99 49.17, 106.04 -2.43 M238.66 113.27 C207.4 86.91, 176.87 60.88, 105.38 -2.38 M245.68 113.95 C200.24 74.56, 159.29 35.38, 112.95 -3.14 M244.51 113.91 C194.77 71.32, 145.39 28.7, 111.8 -1.11 M248.33 112.66 C213.95 79.6, 175.33 48.9, 116.08 -2.21 M249.85 114.34 C221.33 87.93, 192.08 61.52, 117.57 -2.16 M255.32 114.78 C212.5 73.51, 167.45 35.5, 123.27 -1.81 M255.99 114.61 C226.8 89.21, 198.58 63.26, 122.64 -1.04 M260.35 109.71 C231.88 86.42, 204.38 64.46, 130.64 0.4 M258.99 111.44 C226.86 82.56, 193.91 54.4, 129.33 -1.6 M256.49 106.44 C209.93 64.46, 164.53 20.64, 133.66 -2.57 M259.12 105.47 C212.41 63.36, 163.32 21.71, 135.72 -1.72 M258.67 99.73 C217.01 61.77, 177.09 24.6, 140.27 -2.88 M259.64 99.73 C219.9 65.46, 179.83 30.67, 141.97 -1.92 M258.96 93.79 C219.38 63.73, 180.96 27.94, 146.35 -2.29 M259.36 94.45 C216.78 57.92, 173.47 21.11, 148.18 -1.53 M259.94 90.36 C229.84 66.04, 203.36 39.84, 152.61 -0.67 M258.29 89.41 C218.29 52.03, 175.9 16.51, 154.45 -2.05 M259.72 84.87 C230.4 59.77, 203.06 36.74, 160.1 -0.47 M259.96 85.34 C236.19 63.99, 211.89 43.79, 160.77 -1.31 M259.54 78.06 C224.76 47.97, 186.72 16.79, 167.29 -2.5 M259.25 79.68 C226.96 51.09, 196.47 23.92, 165.31 -2.13 M260.54 75.4 C230.05 49.62, 204.32 23.3, 173.17 0.15 M258.53 73.31 C236.45 53.95, 215.73 35.73, 171.83 -1.94 M258.62 70.03 C242.23 54.33, 224.1 36.32, 178.74 -0.21 M258.7 67.63 C230.84 44.5, 204.39 21.09, 178.46 -1.94 M257.22 62.19 C242.29 50.02, 225.21 34.56, 185.89 -0.49 M259.3 63.28 C240.46 47.46, 221.09 30.61, 184.84 -1.48 M258.13 58.18 C244.65 46.72, 229.21 34.49, 190.92 -1.23 M259.65 57.25 C232.72 35.07, 204.93 11.57, 190.93 -1.21 M258.34 53.76 C247.07 40.38, 233.53 31.19, 195.6 -0.39 M258.86 51.57 C240.19 36.39, 223.88 21.17, 196.36 -2.74 M256.79 45.13 C246.82 34.07, 231.78 25.41, 204.3 -1.26 M258.99 46.42 C237.43 29.45, 218.38 10.15, 202.82 -1.24 M259.26 40.35 C244.64 30.14, 233.75 19.45, 207.44 -0.82 M259.13 42.86 C240.09 24.36, 221.18 8.72, 207.84 -1.63 M257.1 38.25 C247.55 25.43, 232.83 14.18, 214.41 -2.31 M258.47 35.9 C245.41 23.5, 229.35 12.36, 214.9 -1.97 M260.12 31.92 C248.71 24.05, 239.6 14.1, 221.06 0.32 M258.42 31.24 C246.42 21.18, 232.9 10, 221.3 -1.55 M259.34 27.59 C251.13 20.18, 243.39 13.98, 226.8 -1.34 M257.69 26.35 C251.72 20.77, 245.75 14.25, 226.49 -1.61 M259.85 20.14 C252.51 15.51, 244.57 6.15, 233.64 -0.12 M258.39 21.19 C248.92 12.37, 239.59 3.88, 233.4 -0.92 M259.59 15.95 C255.03 11.45, 248.62 4.55, 239.79 -3.57 M259.11 15.32 C251.5 8.57, 243.91 2.33, 239.31 -2.98 M258.24 8.58 C253.53 7.01, 250.94 1.9, 246.31 -0.72 M259.04 10.53 C255.77 6.68, 251.32 2.61, 244.95 -2.3 M259.04 4.59 C255.67 3.03, 253.57 -0.27, 251.52 -0.76 M258.77 4.33 C257.18 3, 255.57 1.75, 251.48 -1.66" stroke="#ffc9c9" stroke-width="0.5" fill="none"></path><path d="M1.54 1.21 C98.44 -0.76, 199.78 -0.63, 257.65 0.17 M0.46 -0.69 C96.44 -0.63, 191.23 -1.22, 256.9 0.7 M255.48 1.6 C256.17 36.77, 256.18 76.98, 255.7 112.09 M256.57 0.54 C256.36 24.39, 254.58 50.23, 256.23 112.86 M254.97 115.01 C178.91 113.33, 101.71 115.23, 1.34 112.63 M255.97 114.05 C199.82 113.21, 145.04 113.24, 0.28 113.57 M0.72 115.41 C0.74 84.1, -0.92 55.47, -1.23 1.29 M0.27 114.39 C1.32 80.25, 1.48 45.23, 0.6 -0.24" stroke="#1e1e1e" stroke-width="1" fill="none"></path></g><g transform="translate(1040.7892303466797 519.759765625) rotate(0 96.82991027832031 37.5)"><text x="96.82991027832031" y="0" font-family="Virgil, Segoe UI Emoji" font-size="20px" fill="#1e1e1e" text-anchor="middle" style="white-space: pre;" direction="ltr" dominant-baseline="text-before-edge">WebSocket tunnel </text><text x="96.82991027832031" y="25" font-family="Virgil, Segoe UI Emoji" font-size="20px" fill="#1e1e1e" text-anchor="middle" style="white-space: pre;" direction="ltr" dominant-baseline="text-before-edge">that uses Proxygen</text><text x="96.82991027832031" y="50" font-family="Virgil, Segoe UI Emoji" font-size="20px" fill="#1e1e1e" text-anchor="middle" style="white-space: pre;" direction="ltr" dominant-baseline="text-before-edge">magic</text></g><g transform="translate(763.9375 489.890625) rotate(0 95.46990203857422 12.5)"><text x="0" y="0" font-family="Virgil, Segoe UI Emoji" font-size="20px" fill="#1e1e1e" text-anchor="start" style="white-space: pre;" direction="ltr" dominant-baseline="text-before-edge">Flipper proxy server</text></g><g stroke-linecap="round" transform="translate(1305.455078125 475.400390625) rotate(0 205.40625 144.818359375)"><path d="M32 0 M32 0 C149.14 -2.39, 264.69 -2.31, 378.81 0 M32 0 C135.4 -1.9, 237.83 -2.11, 378.81 0 M378.81 0 C400.62 1.65, 412.13 11.16, 410.81 32 M378.81 0 C401.37 -0.37, 412.79 11.82, 410.81 32 M410.81 32 C409.16 113.85, 408.78 195.88, 410.81 257.64 M410.81 32 C412.12 85.25, 412.64 137.72, 410.81 257.64 M410.81 257.64 C410.52 280.11, 399.32 289.14, 378.81 289.64 M410.81 257.64 C410.31 276.86, 397.99 287.92, 378.81 289.64 M378.81 289.64 C275.8 288.47, 173.24 289.69, 32 289.64 M378.81 289.64 C291.99 291.18, 204.81 290.85, 32 289.64 M32 289.64 C8.84 290.38, -1.39 278.37, 0 257.64 M32 289.64 C12.38 290.88, -0.86 281.08, 0 257.64 M0 257.64 C2 168.8, 1.09 77.03, 0 32 M0 257.64 C1.35 184.79, 1.92 114.01, 0 32 M0 32 C0 9.75, 11.49 -0.18, 32 0 M0 32 C-1.8 11.55, 8.84 1.96, 32 0" stroke="#1e1e1e" stroke-width="1" fill="none"></path></g><g transform="translate(1487.875 496.83203125) rotate(0 30.199966430664062 25)"><text x="0" y="0" font-family="Virgil, Segoe UI Emoji" font-size="20px" fill="#1e1e1e" text-anchor="start" style="white-space: pre;" direction="ltr" dominant-baseline="text-before-edge">Flipper</text><text x="0" y="25" font-family="Virgil, Segoe UI Emoji" font-size="20px" fill="#1e1e1e" text-anchor="start" style="white-space: pre;" direction="ltr" dominant-baseline="text-before-edge">server</text></g><g stroke-linecap="round"><g transform="translate(695.953125 534.61328125) rotate(0 153.10793735086918 -0.026942079206833114)"><path d="M0.46 -0.32 C42.64 -2.02, 88.31 0.78, 133.63 0.81 M135.18 0.76 C178.43 -1, 219.95 1.5, 305.75 0.49" stroke="#1e1e1e" stroke-width="1.5" fill="none" stroke-dasharray="8 9"></path></g></g><mask></mask><g stroke-linecap="round"><g transform="translate(1004.98828125 534.640625) rotate(0 150.98405720777816 -10.399741829795005)"><path d="M-0.2 -0.25 C19.83 -3.72, 69.59 -19.64, 119.98 -20.51 C170.38 -21.38, 271.85 -8.21, 302.17 -5.49" stroke="#1e1e1e" stroke-width="2.5" fill="none" stroke-dasharray="1.5 8"></path></g></g><mask></mask></svg>